PathFileType	4	(X/Y/Z)	E:\Qualisys_Data\Carbon_Farble_Plate\Data\Amateur_Runner\S14\T2\S14T2V13_c3d.trc
DataRate	CameraRate	NumFrames	NumMarkers	Units	OrigDataRate	OrigDataStartFrame	OrigNumFrames
200.000000	200.000000	4	39	mm	200.000000	159	319
Frame#	Time	LSHO			RSHO			LICST			RICST			LASIS			LHEEL			RASIS			LTROC			RTROC			SACR			LTH1			LSK4			LTH2			LTH3			RHM5			LSK2			LTH4			RTH1			LTOE			RTH2			RTH3			RTH4			LLEP			RLEP			LSK1			LSK3			RSK1			LHM5			RSK2			LFT1			RSK3			RSK4			LLME			RLME			RTOE			RHEEL			RFT1			RFT2			LFT2			
		X1	Y1	Z1	X2	Y2	Z2	X3	Y3	Z3	X4	Y4	Z4	X5	Y5	Z5	X6	Y6	Z6	X7	Y7	Z7	X8	Y8	Z8	X9	Y9	Z9	X10	Y10	Z10	X11	Y11	Z11	X12	Y12	Z12	X13	Y13	Z13	X14	Y14	Z14	X15	Y15	Z15	X16	Y16	Z16	X17	Y17	Z17	X18	Y18	Z18	X19	Y19	Z19	X20	Y20	Z20	X21	Y21	Z21	X22	Y22	Z22	X23	Y23	Z23	X24	Y24	Z24	X25	Y25	Z25	X26	Y26	Z26	X27	Y27	Z27	X28	Y28	Z28	X29	Y29	Z29	X30	Y30	Z30	X31	Y31	Z31	X32	Y32	Z32	X33	Y33	Z33	X34	Y34	Z34	X35	Y35	Z35	X36	Y36	Z36	X37	Y37	Z37	X38	Y38	Z38	X39	Y39	Z39	

160	0.795	208.8700256347656	1468.026489257812	-510.8779602050781	138.3024597167969	1468.492919921875	-224.4027862548828	139.2721252441406	1015.037414550781	-499.3412780761719	151.7753143310547	1018.731079101562	-225.8612670898438	177.0063018798828	962.77734375	-477.1766662597656	-414.9743957519531	404.36279296875	-388.4072265625	177.2955780029297	976.6237182617188	-246.8955078125	30.8028621673584	909.2230834960938	-523.2130737304688	48.51908111572266	889.7152099609375	-191.6291351318359	-0.3902401626110077	1016.831176757812	-392.5086059570312	34.23995590209961	675.1226806640625	-523.7369384765625	-257.7495422363281	478.0947570800781	-472.9098205566406	-39.89554977416992	697.0987548828125	-500.5962829589844	13.61219024658203	578.8251342773438	-505.1640319824219	447.994140625	123.5297241210938	-213.9483032226562	-171.6767883300781	524.6040649414062	-493.68896484375	-61.84952926635742	602.30517578125	-484.4494323730469	235.3259887695312	707.8819580078125	-192.6005249023438	-413.0211791992188	148.5876007080078	-430.959228515625	160.7516784667969	681.216064453125	-182.7910461425781	268.7685546875	618.5418701171875	-227.9296722412109	190.6707153320312	587.48291015625	-210.1778106689453	-58.73678207397461	534.5445556640625	-498.0557250976562	240.9470825195312	530.9522705078125	-221.5038146972656	-133.2437896728516	451.7904663085938	-498.6905517578125	-223.1887359619141	405.0535583496094	-483.9757385253906	288.6243896484375	419.1336669921875	-218.8208618164062	-447.2492370605469	217.7276916503906	-482.6197814941406	206.0406341552734	397.2180480957031	-225.6400756835938	-437.2728881835938	388.9114379882812	-362.1500244140625	310.1217041015625	318.2991638183594	-232.7821655273438	232.5827026367188	304.7195129394531	-238.7640075683594	-394.4035339355469	359.530517578125	-456.9036865234375	314.0841064453125	137.4170837402344	-258.6680908203125	519.687255859375	177.08056640625	-259.3583068847656	279.3962097167969	92.10012817382812	-321.1950378417969	309.7188415527344	74.57988739013672	-347.9591064453125	288.66748046875	63.34014892578125	-297.2268981933594	-449.3385314941406	399.83447265625	-415.3955383300781
161	0.8	224.5970458984375	1465.010620117188	-509.6376037597656	154.4321746826172	1465.126342773438	-223.5687408447266	155.6622924804688	1012.09716796875	-499.2281188964844	167.9757995605469	1016.407958984375	-225.3605346679688	193.3591918945312	960.3517456054688	-476.9309997558594	-396.4814453125	409.2508544921875	-387.4710693359375	193.3236389160156	974.0287475585938	-246.0483856201172	47.62534713745117	905.7906494140624	-523.4075927734375	64.35972595214844	886.1622924804688	-192.338623046875	15.31197166442871	1013.722778320312	-391.6809692382812	54.00854873657227	671.460693359375	-524.1267700195312	-237.2670440673828	478.462646484375	-473.5102233886719	-20.6706428527832	692.6281127929688	-501.4281921386719	34.32269668579102	574.8390502929688	-506.0672607421875	463.323486328125	120.5184860229492	-215.7482757568359	-150.3405303955078	522.9720458984375	-494.9430541992188	-41.70795059204102	597.2723999023438	-485.3169250488281	252.1459503173828	705.3779296875	-192.1331634521484	-399.2967529296875	153.0830841064453	-430.9447326660156	177.1685180664062	678.5045776367188	-183.7254180908203	286.4158325195312	616.7542114257812	-228.3365783691406	208.0756683349609	585.3131713867188	-211.5440063476562	-37.42628479003906	530.0503540039062	-499.1127319335938	258.1585998535156	528.9669189453125	-221.6326599121094	-113.5525207519531	449.1871032714844	-499.8801574707031	-204.1667327880859	404.7698364257812	-484.3924560546875	305.5334777832031	416.3481140136719	-219.5811614990234	-432.6857299804688	223.2810363769531	-482.3639526367188	222.8400573730469	394.621826171875	-225.7041168212891	-418.8955078125	394.1238098144531	-361.3476257324219	325.9318237304688	315.1851806640625	-233.6583099365234	247.8801879882812	301.9510803222656	-238.5592498779297	-376.4778137207031	363.6282958984375	-456.6837463378906	329.0933837890625	134.3321990966797	-259.4275207519531	534.3023071289062	174.2564239501953	-261.6988830566406	293.6703186035156	88.5270004272461	-321.74755859375	323.5589294433594	71.07825469970703	-348.6622924804688	303.3580017089844	59.78147506713867	-297.4115295410156	-432.0533447265625	406.3065490722656	-414.3163452148438
162	0.805	240.5627136230469	1461.745727539062	-508.6815795898438	170.743896484375	1461.493408203125	-222.6625671386719	171.6809997558594	1009.318115234375	-499.5350952148438	181.4853057861328	1012.66943359375	-224.8961029052734	209.7100524902344	957.6993408203124	-476.125	-377.5527648925781	413.3469543457031	-387.5137939453125	209.4268798828125	970.706787109375	-245.5342864990234	65.052734375	901.9463500976562	-524.3455810546875	80.30574035644531	882.09228515625	-192.7824554443359	30.7132625579834	1010.163818359375	-390.8486328125	73.40743255615234	667.3412475585938	-524.9483642578125	-216.5637969970703	478.4893798828125	-474.3187255859375	-1.577053427696228	687.6650390625	-502.2702331542969	54.99741363525391	570.4976196289062	-507.2437744140625	477.87451171875	117.1173706054688	-218.1051330566406	-128.6146697998047	521.1215209960938	-495.8436889648438	-21.07561683654785	592.0104370117188	-486.0586547851562	269.3222045898438	702.7080078125	-192.6820678710938	-384.8779907226562	158.2338409423828	-431.3175048828125	194.7473754882812	676.3936157226562	-184.7479553222656	303.90869140625	614.5399780273438	-228.4752502441406	225.7502288818359	582.8211059570312	-212.6422119140625	-15.83335208892822	525.7810668945312	-500.9071655273438	275.4127502441406	526.4638671875	-222.1624603271484	-93.91867065429688	445.9928894042969	-500.52001953125	-185.4067687988281	404.1060485839844	-484.731689453125	321.990478515625	412.4223937988281	-220.5589447021484	-417.48095703125	228.9513092041016	-482.1430358886719	238.8073577880859	392.21240234375	-225.2040863037109	-399.4769287109375	399.4981994628906	-360.6856994628906	341.3834838867188	311.9646301269531	-234.4966888427734	263.8051452636719	299.3359680175781	-239.0447387695312	-358.6388549804688	367.958984375	-456.5440673828125	342.9612426757812	130.6213684082031	-259.6543884277344	548.2633056640625	170.7758178710938	-265.0397338867188	307.0363464355469	84.85359191894531	-321.9181518554688	336.8276672363281	67.39470672607422	-349.253662109375	317.2570190429688	55.78998184204102	-297.8106079101562	-412.7577819824219	411.57275390625	-413.599609375
163	0.81	256.4889526367188	1458.193237304688	-508.16552734375	186.8277740478516	1457.732666015625	-222.048095703125	187.6696624755859	1005.549926757812	-499.3822021484375	196.3613433837891	1009.06591796875	-224.4225311279297	226.3297882080078	954.4130249023438	-476.0186462402344	-357.5567626953125	417.7758178710938	-386.6808776855469	225.5808868408203	967.7412109375	-244.7396697998047	81.69400024414062	897.9929809570312	-524.6339111328125	96.01009368896484	878.3182983398438	-192.7636108398438	46.44565200805664	1006.295349121094	-389.5964660644531	92.97200775146484	663.1732177734375	-525.3892211914062	-196.0044555664062	478.0609130859375	-476.6655578613281	17.6831111907959	682.0567016601562	-502.3230590820312	76.10688018798828	566.1509399414062	-508.7617797851562	491.7678833007812	112.6725616455078	-220.6795196533203	-106.8681564331055	518.7034912109375	-497.478759765625	-0.5995040535926819	586.5465087890625	-487.243408203125	286.7181396484375	699.49658203125	-192.5086517333984	-369.9347229003906	162.5512847900391	-431.3336181640625	212.1683349609375	674.0257568359375	-185.7060546875	321.7208557128906	611.924560546875	-229.0097198486328	242.8653259277344	580.1731567382812	-213.8463745117188	5.37786865234375	520.5000610351562	-501.749755859375	292.6288757324219	523.5927734375	-222.888427734375	-73.17193603515625	442.2847595214844	-501.2598266601562	-165.9578399658203	403.3693237304688	-485.4690246582031	338.3022766113281	408.4746704101562	-221.1145324707031	-401.4144287109375	233.8422241210938	-482.0174560546875	255.1500091552734	389.2591857910156	-225.6703491210938	-380.1023254394531	403.4529113769531	-360.3531494140625	356.7649230957031	307.763427734375	-235.3196105957031	278.5543823242188	296.1524963378906	-239.0140380859375	-339.9641418457031	371.9861450195312	-456.241455078125	356.3421325683594	126.9389114379883	-260.4071655273438	561.6458129882812	166.6205139160156	-268.3013610839844	319.4183654785156	80.9874038696289	-322.0508117675781	348.7348022460938	63.37593841552734	-349.9839782714844	329.4875793457031	52.08881759643555	-297.9734497070312	-393.0665283203125	416.4698791503906	-412.8414306640625
